<?xml version="1.0" encoding="utf-8"?>
<!-- Generator: Adobe Illustrator 23.0.6, SVG Export Plug-In . SVG Version: 6.00 Build 0)  -->
<svg version="1.1" id="Layer_1" xmlns="http://www.w3.org/2000/svg" xmlns:xlink="http://www.w3.org/1999/xlink" x="0px" y="0px"
	 viewBox="0 0 54 24" style="enable-background:new 0 0 54 24;" xml:space="preserve">
<style type="text/css">
	.st0{fill:none;}
</style>
<rect y="0" class="st0" width="54" height="24"/>
<g>
	<path d="M50,20h-8V4h3v13h5V20z"/>
	<path d="M28,7.2L20,17h8v3H16v-3.2L24,7h-8V4h12V7.2z"/>
	<polygon points="7,14 11.9,14 14.3,11 7,11 7,7 14,7 14,4 4,4 4,20 14,20 14,17 7,17 	"/>
	<polygon points="37,14 29.8,14 32.2,11 37,11 37,7 30,7 30,4 40,4 40,20 30,20 30,17 37,17 	"/>
</g>
</svg>
